<svg xmlns="http://www.w3.org/2000/svg" viewBox="0 -0.5 32 32" shape-rendering="crispEdges">
<metadata>Made with Pixels to Svg https://codepen.io/shshaw/pen/XbxvNj</metadata>
<path stroke="#777777" d="M14 0h16M19 16h2M13 17h2M11 27h1" />
<path stroke="#868686" d="M13 1h1M29 1h1M13 2h1M29 2h1M13 3h1M29 3h1M13 4h1M29 4h1M13 5h1M29 5h1M13 6h1M29 6h1M13 7h1M29 7h1M8 8h5M29 8h1M7 9h1M13 9h1M29 9h1M6 10h1M13 10h1M29 10h1M5 11h1M13 11h1M29 11h1M0 12h7M13 12h1M29 12h1M1 13h1M13 13h1M29 13h1M2 15h5M13 15h16M30 15h1M2 16h1M30 16h1M2 17h1M23 17h5M30 17h1M2 18h1M30 18h1M2 19h1M9 19h1M2 20h1M8 20h1M10 20h1M2 21h1M9 21h1M2 22h1M8 22h1M2 23h1M9 23h1M22 23h3M2 24h1M8 24h1M20 24h3M2 25h1M9 25h1M2 26h1M8 26h1M2 27h1M9 27h1M2 28h1M8 28h1M2 29h1" />
<path stroke="#ffffff" d="M14 1h14M14 2h1M27 2h1M14 3h1M27 3h1M14 4h1M27 4h1M14 5h1M27 5h1M14 6h1M27 6h1M14 7h1M27 7h1M14 8h1M27 8h1M8 9h4M14 9h1M27 9h1M14 10h1M27 10h1M14 11h1M27 11h1M14 12h14M2 13h5M3 16h4M13 16h2M21 16h9M3 17h4M3 18h4M3 19h4M3 20h4M23 20h1M3 21h4M22 21h1M3 22h1M5 22h1M21 22h1M4 23h1M6 23h1M3 24h1M5 24h1M4 25h1M6 25h1M3 26h1M5 26h1M4 27h1M6 27h1M3 28h1M5 28h1M4 29h1M6 29h1" />
<path stroke="#c0c0c0" d="M28 1h1M28 2h1M28 3h1M28 4h1M28 5h1M28 6h1M28 7h1M28 8h1M28 9h1M28 10h1M28 11h1M28 12h1M14 13h15M28 17h2M28 18h1M23 19h1M25 19h5M22 20h1M21 21h1M16 25h1M15 26h1M14 27h2M13 28h3M13 29h2" />
<path stroke="#000000" d="M30 1h1M30 2h1M30 3h1M30 4h1M30 5h1M30 6h1M30 7h1M13 8h1M30 8h1M12 9h1M30 9h1M11 10h2M30 10h1M10 11h1M12 11h1M30 11h1M9 12h1M12 12h1M30 12h1M8 13h1M12 13h1M30 13h1M7 14h1M12 14h18M7 15h1M12 15h1M31 15h1M7 16h1M12 16h1M31 16h1M7 17h1M12 17h1M31 17h1M7 18h1M24 18h4M31 18h1M7 19h1M30 19h1M7 20h1M25 20h5M7 21h1M7 22h1M17 22h2M7 23h1M16 23h1M19 23h1M7 24h1M16 24h1M19 24h1M7 25h1M17 25h2M7 26h1M7 27h1M10 27h1M7 28h1M9 28h1M7 29h2M2 30h6" />
<path stroke="#000080" d="M15 2h12M15 3h1M26 3h1M15 4h1M26 4h1M15 5h1M26 5h1M15 6h1M26 6h1M15 7h1M26 7h1M15 8h1M26 8h1M15 9h1M26 9h1M15 10h1M26 10h1M15 11h12" />
<path stroke="#66ccff" d="M16 3h3M24 3h2M16 4h2M23 4h2M16 5h1M22 5h2M21 6h2M20 7h2M19 8h2M18 9h2M17 10h2" />
<path stroke="#33ffff" d="M19 3h1M21 3h1M18 4h1M20 4h1M22 4h1M17 5h1M19 5h1M21 5h1M16 6h1M18 6h1M20 6h1M17 7h1M19 7h1M16 8h1M18 8h1M17 9h1" />
<path stroke="#ccffff" d="M20 3h1M22 3h1M19 4h1M21 4h1M18 5h1M20 5h1M17 6h1M19 6h1M16 7h1M18 7h1M17 8h1M16 9h1" />
<path stroke="#00ffff" d="M23 3h1M16 10h1" />
<path stroke="#0099cc" d="M25 4h1M24 5h2M23 6h3M22 7h4M21 8h4M20 9h4M19 10h4M18 27h1M19 28h1M20 29h1M20 30h1" />
<path stroke="#3366ff" d="M25 8h1M24 9h2M23 10h3" />
<path stroke="#5f5f5f" d="M7 10h4M6 11h4M7 12h2M7 13h1M2 14h5M12 18h1M11 19h1M11 20h1M10 21h1M10 22h1M10 23h1M10 24h1M10 25h1M10 26h1M11 28h1M12 29h1M13 30h2M15 31h3" />
<path stroke="#a4a0a0" d="M11 11h1M10 12h2M9 13h3M8 14h4M8 15h4M8 16h4M8 17h4M8 18h4M22 18h1M8 19h1M10 19h1M21 19h2M9 20h1M21 20h1M8 21h1M20 21h1M9 22h1M20 22h1M8 23h1M9 24h1M8 25h1M9 26h1M8 27h1" />
<path stroke="#b2b2b2" d="M30 14h1M29 15h1M20 17h1M20 18h2M29 18h1M20 19h1M19 20h2M19 21h1M19 22h1M23 22h2M14 24h2M23 24h2M12 25h4M22 25h3M11 26h4M12 27h2M12 28h1" />
<path stroke="#080808" d="M31 14h1" />
<path stroke="#969696" d="M15 16h4" />
<path stroke="#66cc99" d="M15 17h1M15 18h1M16 20h1" />
<path stroke="#ffff99" d="M16 17h1M16 18h1M16 19h2M17 20h1M17 27h1M17 28h1M17 29h1M17 30h1" />
<path stroke="#cccc66" d="M17 17h3M17 18h3M18 19h2M18 20h1M18 21h1" />
<path stroke="#333333" d="M21 17h2M23 18h1M24 19h1M24 20h1M25 21h1M25 22h1M25 23h1M25 24h1M25 25h1M25 26h1M24 27h1M24 28h1M23 29h1M21 30h2M18 31h3" />
<path stroke="#3399cc" d="M13 18h1M13 19h2M14 20h1M15 21h1" />
<path stroke="#669999" d="M14 18h1M15 19h1M15 20h1M16 21h2" />
<path stroke="#33cccc" d="M12 19h1M12 20h2M13 21h2M15 22h2M18 28h1M19 29h1M19 30h1" />
<path stroke="#e3e3e3" d="M11 21h1M11 22h2M19 25h3M20 26h5M22 27h2" />
<path stroke="#99ffcc" d="M12 21h1M13 22h2M19 26h1M20 27h2M21 28h3M22 29h1" />
<path stroke="#d7d7d7" d="M23 21h2M22 22h1M20 23h2" />
<path stroke="#cccccc" d="M4 22h1M6 22h1M3 23h1M5 23h1M4 24h1M6 24h1M11 24h3M3 25h1M5 25h1M11 25h1M4 26h1M6 26h1M3 27h1M5 27h1M4 28h1M6 28h1M3 29h1M5 29h1" />
<path stroke="#999999" d="M11 23h5" />
<path stroke="#cccc99" d="M16 26h2M16 27h1M16 28h1M15 29h2M15 30h2" />
<path stroke="#009999" d="M18 26h1M19 27h1M20 28h1M21 29h1" />
<path stroke="#ccffcc" d="M18 29h1M18 30h1" />
</svg>